<mxfile host="app.diagrams.net" agent="Mozilla/5.0 (Macintosh; Intel Mac OS X 10_15_7) AppleWebKit/537.36 (KHTML, like Gecko) Chrome/131.0.0.0 Safari/537.36" version="26.0.4">
  <diagram name="Page-1" id="5HZdJz2moyTFa33PhYxD">
    <mxGraphModel dx="1461" dy="924" grid="1" gridSize="10" guides="1" tooltips="1" connect="1" arrows="1" fold="1" page="1" pageScale="1" pageWidth="850" pageHeight="1100" math="0" shadow="0">
      <root>
        <mxCell id="0" />
        <mxCell id="1" parent="0" />
        <mxCell id="VHHmFpENQBz-ZfLlpOT_-1" value="" style="rounded=0;whiteSpace=wrap;html=1;" parent="1" vertex="1">
          <mxGeometry x="40" y="160" width="720" height="440" as="geometry" />
        </mxCell>
        <mxCell id="VHHmFpENQBz-ZfLlpOT_-2" value="" style="rounded=0;whiteSpace=wrap;html=1;" parent="1" vertex="1">
          <mxGeometry x="40" y="160" width="720" height="40" as="geometry" />
        </mxCell>
        <mxCell id="VHHmFpENQBz-ZfLlpOT_-4" value="&lt;span style=&quot;font-size: 10px;&quot;&gt;login&lt;/span&gt;" style="ellipse;whiteSpace=wrap;html=1;aspect=fixed;" parent="1" vertex="1">
          <mxGeometry x="710" y="166.25" width="27.5" height="27.5" as="geometry" />
        </mxCell>
        <mxCell id="VHHmFpENQBz-ZfLlpOT_-5" value="" style="rounded=0;whiteSpace=wrap;html=1;" parent="1" vertex="1">
          <mxGeometry x="275" y="260" width="250" height="290" as="geometry" />
        </mxCell>
        <mxCell id="VHHmFpENQBz-ZfLlpOT_-6" value="username" style="rounded=0;whiteSpace=wrap;html=1;align=left;" parent="1" vertex="1">
          <mxGeometry x="305" y="320" width="195" height="20" as="geometry" />
        </mxCell>
        <mxCell id="VHHmFpENQBz-ZfLlpOT_-7" value="" style="ellipse;whiteSpace=wrap;html=1;aspect=fixed;" parent="1" vertex="1">
          <mxGeometry x="385" y="280" width="30" height="30" as="geometry" />
        </mxCell>
        <mxCell id="VHHmFpENQBz-ZfLlpOT_-9" value="Password" style="rounded=0;whiteSpace=wrap;html=1;align=left;" parent="1" vertex="1">
          <mxGeometry x="305" y="360" width="195" height="20" as="geometry" />
        </mxCell>
        <mxCell id="VHHmFpENQBz-ZfLlpOT_-11" value="&lt;div&gt;Login&lt;/div&gt;" style="rounded=1;whiteSpace=wrap;html=1;" parent="1" vertex="1">
          <mxGeometry x="375" y="395" width="50" height="20" as="geometry" />
        </mxCell>
        <mxCell id="VHHmFpENQBz-ZfLlpOT_-12" value="Home" style="rounded=1;whiteSpace=wrap;html=1;" parent="1" vertex="1">
          <mxGeometry x="60" y="168.75" width="50" height="22.5" as="geometry" />
        </mxCell>
        <mxCell id="VHHmFpENQBz-ZfLlpOT_-13" value="Play" style="rounded=1;whiteSpace=wrap;html=1;" parent="1" vertex="1">
          <mxGeometry x="130" y="168.75" width="50" height="22.5" as="geometry" />
        </mxCell>
        <mxCell id="VHHmFpENQBz-ZfLlpOT_-14" value="Host" style="rounded=1;whiteSpace=wrap;html=1;" parent="1" vertex="1">
          <mxGeometry x="200" y="168.75" width="50" height="22.5" as="geometry" />
        </mxCell>
        <mxCell id="IkvCRi3NUfgCMbK1-4zg-1" value="" style="endArrow=none;html=1;rounded=0;entryX=0.82;entryY=0.793;entryDx=0;entryDy=0;entryPerimeter=0;" edge="1" parent="1">
          <mxGeometry width="50" height="50" relative="1" as="geometry">
            <mxPoint x="322.5" y="440.03" as="sourcePoint" />
            <mxPoint x="477.4999999999999" y="439.9999999999999" as="targetPoint" />
          </mxGeometry>
        </mxCell>
        <mxCell id="IkvCRi3NUfgCMbK1-4zg-3" value="&lt;div&gt;Login with Google&lt;/div&gt;" style="rounded=1;whiteSpace=wrap;html=1;" vertex="1" parent="1">
          <mxGeometry x="345" y="460" width="115" height="20" as="geometry" />
        </mxCell>
        <mxCell id="IkvCRi3NUfgCMbK1-4zg-5" value="&lt;font style=&quot;color: rgb(51, 51, 255);&quot;&gt;&lt;u style=&quot;&quot;&gt;Create Account&amp;nbsp;&lt;/u&gt;&lt;/font&gt;" style="text;html=1;align=center;verticalAlign=middle;whiteSpace=wrap;rounded=0;" vertex="1" parent="1">
          <mxGeometry x="352.5" y="490" width="100" height="30" as="geometry" />
        </mxCell>
      </root>
    </mxGraphModel>
  </diagram>
</mxfile>
